<svg width="78" height="37" viewBox="0 0 78 37" fill="none" xmlns="http://www.w3.org/2000/svg">
<g clip-path="url(#clip0_2750_884)">
<g clip-path="url(#clip1_2750_884)">
<g clip-path="url(#clip2_2750_884)">
<path d="M12.1188 36.5183C10.0282 36.5183 8.10798 36.1467 6.35811 35.4033C4.60823 34.6601 3.20678 33.5374 2.15375 32.0353C1.10073 30.5332 0.574219 28.6206 0.574219 26.2978V25.903H7.86796V26.2978C7.86796 27.2115 8.04604 27.9935 8.40221 28.6439C8.75839 29.2943 9.25393 29.7976 9.8888 30.1537C10.5238 30.4944 11.2671 30.6647 12.1188 30.6647C13.017 30.6647 13.7758 30.4712 14.3952 30.084C15.0301 29.697 15.5102 29.1317 15.8353 28.3884C16.1605 27.6296 16.3231 26.7005 16.3231 25.6009V1.44336H23.5472V25.6009C23.5472 27.8155 23.0826 29.7434 22.1534 31.3849C21.2243 33.0263 19.9004 34.2961 18.1814 35.1943C16.4779 36.077 14.4571 36.5183 12.1188 36.5183Z" fill="white"/>
<path d="M51.7137 19.0039V24.7181H27.9277V19.0039H51.7137Z" fill="white"/>
<path d="M48.7266 7.48276V1.44336H77.1582V7.48276H66.566V36.0538H59.3419V7.48276H48.7266Z" fill="white"/>
</g>
</g>
</g>
<defs>
<clipPath id="clip0_2750_884">
<rect width="76.98" height="36.33" fill="white" transform="translate(0.25 0.589844)"/>
</clipPath>
<clipPath id="clip1_2750_884">
<rect width="76.98" height="36.33" fill="white" transform="translate(0.25 0.589844)"/>
</clipPath>
<clipPath id="clip2_2750_884">
<rect width="76.98" height="36.3276" fill="white" transform="translate(0.25 0.591797)"/>
</clipPath>
</defs>
</svg>
